<svg id="Layer_1" height="512" viewBox="0 0 128 128" width="512" fill="#386FCF" xmlns="http://www.w3.org/2000/svg" data-name="Layer 1"><path d="m114.4 85.127a21.651 21.651 0 0 0 -29.188-20.3 21.553 21.553 0 0 0 -4.977-1.927 34.5 34.5 0 1 0 -50.146.018 21.839 21.839 0 0 0 -16.489 21.082v37.5a1.75 1.75 0 0 0 1.75 1.75h79.61a1.75 1.75 0 0 0 1.75-1.75v-15.088a21.685 21.685 0 0 0 17.69-21.285zm-59.246-76.877a31 31 0 1 1 -31 31 31.035 31.035 0 0 1 31-31zm38.056 111.5h-76.11v-35.75a18.3 18.3 0 0 1 16.165-18.1 34.431 34.431 0 0 0 43.794-.013 17.786 17.786 0 0 1 4.118.956 21.645 21.645 0 0 0 11.573 39.938c.154 0 .306-.008.46-.012zm-.46-16.469a18.154 18.154 0 1 1 18.15-18.154 18.174 18.174 0 0 1 -18.15 18.154z"/><path d="m102.75 80.377h-5.25v-5.25a1.75 1.75 0 0 0 -1.75-1.75h-6a1.75 1.75 0 0 0 -1.75 1.75v5.25h-5.25a1.75 1.75 0 0 0 -1.75 1.75v6a1.75 1.75 0 0 0 1.75 1.75h5.25v5.25a1.75 1.75 0 0 0 1.75 1.75h6a1.75 1.75 0 0 0 1.75-1.75v-5.25h5.25a1.75 1.75 0 0 0 1.75-1.75v-6a1.75 1.75 0 0 0 -1.75-1.75zm-1.75 6h-5.25a1.75 1.75 0 0 0 -1.75 1.75v5.25h-2.5v-5.25a1.75 1.75 0 0 0 -1.75-1.75h-5.25v-2.5h5.25a1.75 1.75 0 0 0 1.75-1.75v-5.25h2.5v5.25a1.75 1.75 0 0 0 1.75 1.75h5.25z"/><path d="m21.346 90.688a1.75 1.75 0 0 0 -1.75 1.75v19.062a1.75 1.75 0 0 0 3.5 0v-19.062a1.75 1.75 0 0 0 -1.75-1.75z"/></svg>